<?xml version="1.0" encoding="utf-8"?>
<svg version="1.1" xmlns:xlink="http://www.w3.org/1999/xlink" width="50px" height="50px" xmlns="http://www.w3.org/2000/svg">
  <g transform="matrix(1 0 0 1 -125 -146 )">
    <path d="M 150 146  C 164 146  175 157  175 171  C 175 185  164 196  150 196  C 136 196  125 185  125 171  C 125 157  136 146  150 146  Z " fill-rule="nonzero" fill="#ffffff" stroke="none" />
    <path d="M 150 146.5  C 163.72 146.5  174.5 157.28  174.5 171  C 174.5 184.72  163.72 195.5  150 195.5  C 136.28 195.5  125.5 184.72  125.5 171  C 125.5 157.28  136.28 146.5  150 146.5  Z " stroke-width="1" stroke="#797979" fill="none" />
  </g>
</svg>