<?xml version="1.0" encoding="utf-8"?>
<svg version="1.1" xmlns:xlink="http://www.w3.org/1999/xlink" width="12px" height="20px" xmlns="http://www.w3.org/2000/svg">
  <g transform="matrix(1 0 0 1 -230 -762 )">
    <path d="M 0.59931271477663 1.20240480961924  C 0.466437571592209 1.33600534402137  0.399999999999999 1.48964595858383  0.399999999999999 1.66332665330661  C 0.399999999999999 1.83700734802939  0.466437571592209 1.99064796259185  0.59931271477663 2.12424849699399  L 8.43230240549828 10  L 0.59931271477663 17.875751503006  C 0.466437571592209 18.0093520374081  0.399999999999999 18.1629926519706  0.399999999999999 18.3366733466934  C 0.399999999999999 18.5103540414162  0.466437571592209 18.6639946559786  0.59931271477663 18.7975951903808  L 1.59587628865979 19.7995991983968  C 1.72875143184421 19.9331997327989  1.8815578465063 20  2.05429553264605 20  C 2.22703321878579 20  2.37983963344788 19.9331997327989  2.5127147766323 19.7995991983968  L 11.8006872852234 10.4609218436874  C 11.9335624284078 10.3273213092852  12 10.1736806947228  12 10  C 12 9.82631930527722  11.9335624284078 9.67267869071476  11.8006872852234 9.53907815631263  L 2.5127147766323 0.200400801603209  C 2.37983963344788 0.0668002672010672  2.22703321878579 0  2.05429553264605 0  C 1.8815578465063 0  1.72875143184421 0.0668002672010672  1.59587628865979 0.200400801603209  L 0.59931271477663 1.20240480961924  Z " fill-rule="nonzero" fill="#cccccc" stroke="none" transform="matrix(1 0 0 1 230 762 )" />
  </g>
</svg>