<?xml version="1.0" encoding="utf-8"?>
<svg version="1.1" xmlns:xlink="http://www.w3.org/1999/xlink" width="46px" height="46px" xmlns="http://www.w3.org/2000/svg">
  <g transform="matrix(1 0 0 1 -10 -65 )">
    <path d="M 33 65  C 45.88 65  56 75.12  56 88  C 56 100.88  45.88 111  33 111  C 20.12 111  10 100.88  10 88  C 10 75.12  20.12 65  33 65  Z " fill-rule="nonzero" fill="#cccccc" stroke="none" />
    <path d="M 33 65.5  C 45.6 65.5  55.5 75.4  55.5 88  C 55.5 100.6  45.6 110.5  33 110.5  C 20.4 110.5  10.5 100.6  10.5 88  C 10.5 75.4  20.4 65.5  33 65.5  Z " stroke-width="1" stroke="#797979" fill="none" />
  </g>
</svg>