<?xml version="1.0" encoding="utf-8"?>
<svg version="1.1" xmlns:xlink="http://www.w3.org/1999/xlink" width="35px" height="35px" xmlns="http://www.w3.org/2000/svg">
  <g transform="matrix(1 0 0 1 -21 -522 )">
    <path d="M 38.5 522  C 48.3 522  56 529.7  56 539.5  C 56 549.3  48.3 557  38.5 557  C 28.7 557  21 549.3  21 539.5  C 21 529.7  28.7 522  38.5 522  Z " fill-rule="nonzero" fill="#ffffff" stroke="none" />
    <path d="M 38.5 522.5  C 48.02 522.5  55.5 529.98  55.5 539.5  C 55.5 549.02  48.02 556.5  38.5 556.5  C 28.98 556.5  21.5 549.02  21.5 539.5  C 21.5 529.98  28.98 522.5  38.5 522.5  Z " stroke-width="1" stroke="#797979" fill="none" />
  </g>
</svg>