<?xml version="1.0" encoding="utf-8"?>
<svg version="1.1" xmlns:xlink="http://www.w3.org/1999/xlink" width="9px" height="15px" xmlns="http://www.w3.org/2000/svg">
  <g transform="matrix(1 0 0 1 -821 -338 )">
    <path d="M 0.449484536082473 0.901803607214429  C 0.349828178694157 1.00200400801603  0.299999999999999 1.11723446893787  0.299999999999999 1.24749498997996  C 0.299999999999999 1.37775551102204  0.349828178694157 1.49298597194389  0.449484536082473 1.59318637274549  L 6.32422680412371 7.5  L 0.449484536082473 13.4068136272545  C 0.349828178694157 13.5070140280561  0.299999999999999 13.622244488978  0.299999999999999 13.75250501002  C 0.299999999999999 13.8827655310621  0.349828178694157 13.997995991984  0.449484536082473 14.0981963927856  L 1.19690721649484 14.8496993987976  C 1.29656357388316 14.9498997995992  1.41116838487972 15  1.54072164948454 15  C 1.67027491408934 15  1.78487972508591 14.9498997995992  1.88453608247423 14.8496993987976  L 8.85051546391753 7.84569138276553  C 8.95017182130584 7.74549098196393  9 7.63026052104208  9 7.5  C 9 7.36973947895792  8.95017182130584 7.25450901803607  8.85051546391753 7.15430861723447  L 1.88453608247423 0.150300601202407  C 1.78487972508591 0.0501002004008004  1.67027491408934 0  1.54072164948454 0  C 1.41116838487972 0  1.29656357388316 0.0501002004008004  1.19690721649484 0.150300601202407  L 0.449484536082473 0.901803607214429  Z " fill-rule="nonzero" fill="#cccccc" stroke="none" transform="matrix(1 0 0 1 821 338 )" />
  </g>
</svg>