<?xml version="1.0" encoding="utf-8"?>
<svg version="1.1" xmlns:xlink="http://www.w3.org/1999/xlink" width="100px" height="100px" xmlns="http://www.w3.org/2000/svg">
  <g transform="matrix(1 0 0 1 -1360 -600 )">
    <path d="M 1360 600  L 1460 600  L 1460 700  L 1360 700  L 1360 600  " fill-rule="nonzero" fill="#cccccc" stroke="none" />
    <path d="M 1367 607  L 1453 607  L 1453 693  L 1367 693  L 1367 607  " fill-rule="nonzero" fill="#ffffff" stroke="none" />
    <path d="M 1419.5 630  C 1415.3 630  1412 626.7  1412 622.5  C 1412 618.3  1415.3 615  1419.5 615  C 1423.7 615  1427 618.3  1427 622.5  C 1427 626.7  1423.7 630  1419.5 630  " fill-rule="nonzero" fill="#cccccc" stroke="none" />
    <path d="M 1370 691  L 1370 646.45  L 1390.25 626.2  L 1418.6 642.4  L 1434.8 638.35  L 1451 642.4  L 1451 691  L 1370 691  " fill-rule="nonzero" fill="#169bd5" stroke="none" />
  </g>
</svg>