<?xml version="1.0" encoding="utf-8"?>
<svg version="1.1" xmlns:xlink="http://www.w3.org/1999/xlink" width="50px" height="50px" xmlns="http://www.w3.org/2000/svg">
  <g transform="matrix(1 0 0 1 -73 -120 )">
    <path d="M 98 120  C 112 120  123 131  123 145  C 123 159  112 170  98 170  C 84 170  73 159  73 145  C 73 131  84 120  98 120  Z " fill-rule="nonzero" fill="#ffffff" stroke="none" />
    <path d="M 98 120.5  C 111.72 120.5  122.5 131.28  122.5 145  C 122.5 158.72  111.72 169.5  98 169.5  C 84.28 169.5  73.5 158.72  73.5 145  C 73.5 131.28  84.28 120.5  98 120.5  Z " stroke-width="1" stroke="#797979" fill="none" />
  </g>
</svg>